<?xml version="1.0" encoding="UTF-8"?>
<svg fill="none" viewBox="0 0 94 28" xmlns="http://www.w3.org/2000/svg">
<path d="m21.276 1.976v25.024h-4.93v-10.166h-11.186v10.166h-4.93v-25.024h4.93v10.098h11.186v-10.098h4.93zm12.974 25.432c-1.8133 0-3.3547-0.34-4.624-1.02-1.2467-0.68-2.1987-1.6207-2.856-2.822s-0.986-2.584-0.986-4.148c0-1.496 0.3853-2.8447 1.156-4.046s1.802-2.1533 3.094-2.856c1.292-0.7253 2.7313-1.088 4.318-1.088 2.1307 0 3.876 0.6233 5.236 1.87 1.3827 1.224 2.278 3.0033 2.686 5.338l-11.56 3.672-1.054-2.584 8.364-2.822-0.986 0.442c-0.1813-0.5893-0.51-1.0993-0.986-1.53-0.4533-0.4533-1.1447-0.68-2.074-0.68-0.7027 0-1.326 0.17-1.87 0.51-0.5213 0.3173-0.9293 0.782-1.224 1.394-0.272 0.5893-0.408 1.292-0.408 2.108 0 0.9293 0.17 1.7113 0.51 2.346 0.34 0.612 0.8047 1.0767 1.394 1.394s1.2467 0.476 1.972 0.476c0.5213 0 1.02-0.0907 1.496-0.272 0.4987-0.1813 0.986-0.4193 1.462-0.714l2.108 3.536c-0.7933 0.4533-1.6547 0.816-2.584 1.088-0.9067 0.272-1.768 0.408-2.584 0.408zm11.483-0.408v-26.826h4.76v26.826h-4.76zm8.534-10.098 6.732 10.098h-5.542l-4.318-7.378 3.128-2.72zm-5.202 5.984-0.476-4.522 8.976-6.596 2.89 2.55-11.39 8.568zm16.622-17.272h4.76v6.46h3.604v3.706h-3.604v11.22h-4.76v-11.22h-2.312v-3.706h2.312v-6.46zm10.831 13.77c0-1.5187 0.3513-2.8787 1.054-4.08 0.7253-1.2013 1.734-2.142 3.026-2.822 1.292-0.7027 2.7766-1.054 4.454-1.054 1.7 0 3.1733 0.3513 4.42 1.054 1.2466 0.68 2.1986 1.6207 2.856 2.822 0.68 1.2013 1.02 2.5613 1.02 4.08s-0.34 2.89-1.02 4.114c-0.6574 1.2013-1.6094 2.1533-2.856 2.856-1.2467 0.7027-2.7427 1.054-4.488 1.054-1.632 0-3.094-0.3173-4.386-0.952-1.2694-0.6347-2.2667-1.5527-2.992-2.754-0.7254-1.2013-1.088-2.6407-1.088-4.318zm4.794 0.034c0 0.7707 0.1586 1.4733 0.476 2.108 0.3173 0.612 0.748 1.0993 1.292 1.462s1.156 0.544 1.836 0.544c0.748 0 1.394-0.1813 1.938-0.544s0.9633-0.85 1.258-1.462c0.2946-0.6347 0.442-1.3373 0.442-2.108 0-0.7933-0.1474-1.496-0.442-2.108-0.2947-0.612-0.714-1.0993-1.258-1.462s-1.19-0.544-1.938-0.544c-0.68 0-1.292 0.1813-1.836 0.544s-0.9747 0.85-1.292 1.462c-0.3174 0.612-0.476 1.3147-0.476 2.108z" fill="#0D0E43"/>
</svg>
